<svg width="380" height="380" xmlns="http://www.w3.org/2000/svg" xmlns:xlink="http://www.w3.org/1999/xlink" overflow="hidden"><defs><clipPath id="clip0"><path d="M450 170 830 170 830 550 450 550Z" fill-rule="evenodd" clip-rule="evenodd"/></clipPath></defs><g clip-path="url(#clip0)" transform="translate(-450 -170)"><path d="M451 360C451 255.618 535.618 171 640 171 744.382 171 829 255.618 829 360 829 464.382 744.382 549 640 549 535.618 549 451 464.382 451 360Z" fill="#00B050" fill-rule="evenodd"/><path d="M640 370C708.691 370 765.188 422.003 771.982 488.642L772 489 508 489 508.018 488.642C514.812 422.003 571.31 370 640 370Z" fill="#FFFFFF" fill-rule="evenodd"/><path d="M640 411C691.915 411 734 453.205 734 505.268 734 511.776 733.342 518.129 732.09 524.266L731.833 525.27 730.233 526.245C703.595 540.757 673.068 549 640.621 549 608.174 549 577.648 540.757 551.009 526.245L547.937 524.373 547.91 524.266C546.658 518.129 546 511.776 546 505.268 546 453.205 588.085 411 640 411Z" fill="#00B050" fill-rule="evenodd"/><path d="M509 236 771 236 769.767 244.09C757.416 304.533 704.01 350 640 350 575.99 350 522.584 304.533 510.233 244.09Z" fill="#FFFFFF" fill-rule="evenodd"/><path d="M639.737 171C672.184 171 702.711 179.281 729.349 193.86L730.375 194.488 732.09 201.21C733.342 207.375 734 213.758 734 220.296 734 272.6 691.915 315 640 315 588.085 315 546 272.6 546 220.296 546 213.758 546.658 207.375 547.91 201.21L549.723 194.107 550.125 193.86C576.763 179.281 607.29 171 639.737 171Z" fill="#00B050" fill-rule="evenodd"/><path d="M587 236 625 236 625 489 587 489Z" fill="#FFFFFF" fill-rule="evenodd"/><path d="M655 236 693 236 693 489 655 489Z" fill="#FFFFFF" fill-rule="evenodd"/></g></svg>